name precision_landing11_filtered_grf.mot
datacolumns 37
datarows 15
range 0.657500 0.664500
endheader
time	1_ground_force_vx	1_ground_force_vy	1_ground_force_vz	1_ground_force_px	1_ground_force_py	1_ground_force_pz	1_ground_torque_x	1_ground_torque_y	1_ground_torque_z	2_ground_force_vx	2_ground_force_vy	2_ground_force_vz	2_ground_force_px	2_ground_force_py	2_ground_force_pz	2_ground_torque_x	2_ground_torque_y	2_ground_torque_z	3_ground_force_vx	3_ground_force_vy	3_ground_force_vz	3_ground_force_px	3_ground_force_py	3_ground_force_pz	3_ground_torque_x	3_ground_torque_y	3_ground_torque_z	4_ground_force_vx	4_ground_force_vy	4_ground_force_vz	4_ground_force_px	4_ground_force_py	4_ground_force_pz	4_ground_torque_x	4_ground_torque_y	4_ground_torque_z
            0.657500	            0.000000	           -0.000000	           -0.000000	            0.083522	            0.000000	            0.166275	           -0.000000	           -0.000000	            0.000000	            0.000000	            0.000000	            0.000000	           -0.190458	            0.000000	            0.249503	            0.000000	           -0.000000	            0.000000	            1.820692	           -0.571023	            0.347049	            0.381582	            1.276066	            1.865149	            0.015451	            0.044778	            0.032250	           -2.013426	           -0.382437	            1.191846	           -0.350651	            1.268568	            1.859096	            0.009472	           -0.060956	           -0.009199
            0.658000	            0.000000	           -0.000000	           -0.000000	            0.083522	            0.000000	            0.166275	           -0.000000	           -0.000000	            0.000000	            0.000000	            0.000000	            0.000000	           -0.190458	            0.000000	            0.249503	            0.000000	           -0.000000	            0.000000	            1.762602	           -0.616071	            0.443727	            0.381583	            1.276063	            1.865117	            0.016337	            0.047626	            0.032112	           -1.995769	           -0.386563	            1.178892	           -0.350654	            1.268567	            1.859087	            0.009435	           -0.060406	           -0.008848
            0.658500	            0.000000	           -0.000000	           -0.000000	            0.083522	            0.000000	            0.166275	           -0.000000	           -0.000000	            0.000000	            0.000000	            0.000000	            0.000000	           -0.190458	            0.000000	            0.249503	            0.000000	           -0.000000	            0.000000	            1.705379	           -0.661955	            0.538286	            0.381584	            1.276060	            1.865086	            0.017218	            0.050482	            0.032041	           -1.980129	           -0.391177	            1.166820	           -0.350656	            1.268566	            1.859077	            0.009365	           -0.059990	           -0.008585
            0.659000	            0.000000	           -0.000000	           -0.000000	            0.083522	            0.000000	            0.166275	           -0.000000	           -0.000000	            0.000000	            0.000000	            0.000000	            0.000000	           -0.190458	            0.000000	            0.249503	            0.000000	           -0.000000	            0.000000	            1.649436	           -0.708547	            0.630304	            0.381584	            1.276057	            1.865055	            0.018086	            0.053338	            0.032040	           -1.966446	           -0.396191	            1.155572	           -0.350659	            1.268565	            1.859068	            0.009264	           -0.059702	           -0.008409
            0.659500	            0.000000	           -0.000000	           -0.000000	            0.083522	            0.000000	            0.166275	           -0.000000	           -0.000000	            0.000000	            0.000000	            0.000000	            0.000000	           -0.190458	            0.000000	            0.249503	            0.000000	           -0.000000	            0.000000	            1.595185	           -0.755710	            0.719372	            0.381585	            1.276054	            1.865023	            0.018935	            0.056183	            0.032113	           -1.954655	           -0.401505	            1.145083	           -0.350661	            1.268564	            1.859059	            0.009132	           -0.059536	           -0.008318
            0.660000	            0.000000	           -0.000000	           -0.000000	            0.083522	            0.000000	            0.166275	           -0.000000	           -0.000000	            0.000000	           -0.000000	            0.000000	            0.000000	           -0.190458	            0.000000	            0.249503	            0.000000	           -0.000000	            0.000000	            1.543034	           -0.803299	            0.805096	            0.381586	            1.276051	            1.864992	            0.019760	            0.059009	            0.032258	           -1.944682	           -0.407015	            1.135281	           -0.350664	            1.268563	            1.859050	            0.008971	           -0.059486	           -0.008312
            0.660500	            0.000000	           -0.000000	           -0.000000	            0.083522	            0.000000	            0.166275	           -0.000000	           -0.000000	            0.000000	           -0.000000	            0.000000	            0.000000	           -0.190458	            0.000000	            0.249503	            0.000000	           -0.000000	            0.000000	            1.493437	           -0.851168	            0.887006	            0.381581	            1.276049	            1.864969	            0.020558	            0.061803	            0.032477	           -1.936454	           -0.412604	            1.126088	           -0.350665	            1.268563	            1.859043	            0.008783	           -0.059544	           -0.008389
            0.661000	            0.000000	           -0.000000	           -0.000000	            0.083522	            0.000000	            0.166275	           -0.000000	           -0.000000	            0.000000	           -0.000000	            0.000000	            0.000000	           -0.190458	            0.000000	            0.249503	            0.000000	           -0.000000	            0.000000	            1.446739	           -0.899148	            0.964848	            0.381577	            1.276048	            1.864947	            0.021321	            0.064555	            0.032767	           -1.929881	           -0.418168	            1.117439	           -0.350666	            1.268563	            1.859036	            0.008569	           -0.059702	           -0.008549
            0.661500	            0.000000	           -0.000000	           -0.000000	            0.083522	            0.000000	            0.166275	           -0.000000	           -0.000000	            0.000000	           -0.000000	            0.000000	            0.000000	           -0.190458	            0.000000	            0.249503	            0.000000	           -0.000000	            0.000000	            1.403313	           -0.947068	            1.038296	            0.381572	            1.276046	            1.864925	            0.022045	            0.067251	            0.033125	           -1.924872	           -0.423595	            1.109265	           -0.350667	            1.268564	            1.859029	            0.008333	           -0.059951	           -0.008789
            0.662000	            0.000000	           -0.000000	           -0.000000	            0.083522	            0.000000	            0.166275	           -0.000000	           -0.000000	            0.000000	           -0.000000	           -0.000000	            0.000000	           -0.190458	            0.000000	            0.249503	            0.000000	            0.000000	           -0.000000	            1.363507	           -0.994753	            1.107050	            0.381568	            1.276044	            1.864903	            0.022725	            0.069880	            0.033548	           -1.921334	           -0.428778	            1.101500	           -0.350668	            1.268564	            1.859022	            0.008075	           -0.060281	           -0.009108
            0.662500	            0.000000	           -0.000000	           -0.000000	            0.083522	            0.000000	            0.166275	           -0.000000	           -0.000000	            0.000000	           -0.000000	           -0.000000	            0.000000	           -0.190458	            0.000000	            0.249503	           -0.000000	            0.000000	           -0.000000	            1.327643	           -1.042022	            1.170842	            0.381563	            1.276043	            1.864880	            0.023359	            0.072429	            0.034030	           -1.919168	           -0.433610	            1.094086	           -0.350669	            1.268564	            1.859015	            0.007799	           -0.060683	           -0.009503
            0.663000	            0.000000	           -0.000000	           -0.000000	            0.083522	            0.000000	            0.166275	           -0.000000	           -0.000000	            0.000000	           -0.000000	           -0.000000	            0.000000	           -0.190458	            0.000000	            0.249503	           -0.000000	            0.000000	           -0.000000	            1.296076	           -1.088708	            1.229351	            0.381554	            1.276042	            1.864868	            0.023945	            0.074884	            0.034564	           -1.918269	           -0.437984	            1.086979	           -0.350669	            1.268565	            1.859010	            0.007507	           -0.061146	           -0.009974
            0.663500	            0.000000	           -0.000000	           -0.000000	            0.083522	            0.000000	            0.166275	           -0.000000	           -0.000000	            0.000000	           -0.000000	           -0.000000	            0.000000	           -0.190458	            0.000000	            0.249503	           -0.000000	            0.000000	           -0.000000	            1.269003	           -1.134603	            1.282457	            0.381545	            1.276042	            1.864855	            0.024478	            0.077234	            0.035144	           -1.918535	           -0.441820	            1.080123	           -0.350669	            1.268567	            1.859006	            0.007201	           -0.061660	           -0.010516
            0.664000	            0.000000	           -0.000000	           -0.000000	            0.083522	            0.000000	            0.166275	           -0.000000	           -0.000000	            0.000000	           -0.000000	           -0.000000	            0.000000	           -0.190458	            0.000000	            0.249503	           -0.000000	            0.000000	           -0.000000	            1.246640	           -1.179518	            1.329985	            0.381536	            1.276042	            1.864843	            0.024956	            0.079465	            0.035763	           -1.919857	           -0.445039	            1.073479	           -0.350668	            1.268568	            1.859002	            0.006883	           -0.062216	           -0.011128
            0.664500	            0.000000	           -0.000000	           -0.000000	            0.083522	            0.000000	            0.166275	           -0.000000	           -0.000000	            0.000000	           -0.000000	           -0.000000	           -0.000000	           -0.190458	            0.000000	            0.249503	           -0.000000	            0.000000	           -0.000000	            1.229159	           -1.223258	            1.371798	            0.381527	            1.276041	            1.864830	            0.025377	            0.081566	            0.036411	           -1.922124	           -0.447570	            1.067019	           -0.350668	            1.268569	            1.858997	            0.006557	           -0.062804	           -0.011805
